<svg width="1210" height="1018" viewBox="0 0 1210 1018" fill="none" xmlns="http://www.w3.org/2000/svg">
<g opacity="0.3" filter="url(#filter0_f_1618_1343)">
<path opacity="0.3" d="M508.39 470.549C521.706 468.792 534.786 455.233 548.17 455.112C551.621 455.366 559.927 452.374 565.545 438.375C579.264 426.328 587.57 383.089 604.146 375.063C616.349 369.155 631.004 362.864 644.503 368.338C654.908 372.56 662.456 381.887 668.394 391.04C676.998 404.299 683.295 419.279 686.352 434.804C696.327 485.414 678.145 538.194 654.994 582.578C626.782 636.658 583.81 680.283 533.695 714.565C513.028 728.706 491.336 740.821 467.578 748.895C445.703 756.328 422.893 761.497 400.003 764.574C370.864 768.491 340.605 768.281 312.313 759.586C290.794 752.97 274.803 738.027 262.961 719.128C246.772 693.297 246.165 662.263 258.816 634.518C266.62 617.405 282.946 599.736 303.539 602.473C319.248 604.561 332.32 615.644 345.385 623.627C354.117 628.962 366.579 636.332 376.277 629.31C392.68 617.432 405.222 599.093 416.042 582.396C429.863 561.066 436.886 536.882 447.491 514.025C453.599 500.861 464.777 491.282 476.537 483.209C485.992 476.718 496.974 472.055 508.39 470.549Z" fill="#7928CA"/>
</g>
<g opacity="0.3" filter="url(#filter1_f_1618_1343)">
<path opacity="0.3" d="M523.078 428.582C531.062 432.923 543.616 430.712 550.985 435.974C552.771 437.487 558.506 439.157 567.152 433.735C579.453 432.606 601.21 412.26 613.472 414.469C622.5 416.095 633.023 418.487 638.225 426.856C642.238 433.307 642.654 441.414 642.257 448.786C641.689 459.464 639.167 470.164 634.662 479.874C619.968 511.531 589.012 533.166 558.677 548.228C521.715 566.581 480.842 573.338 439.778 572.142C422.844 571.65 406.155 569.641 389.944 564.6C375.019 559.957 360.483 553.706 346.736 546.276C329.237 536.818 312.767 524.659 300.753 508.637C291.616 496.452 288.817 481.911 289.861 466.86C291.289 446.284 303.311 429.065 321.278 418.925C332.359 412.67 348.323 409.504 358.499 419.199C366.262 426.595 369 437.861 372.969 447.43C375.622 453.824 379.505 462.817 387.605 462.836C401.307 462.869 415.469 457.83 428.035 453.003C444.087 446.837 457.557 436.403 472.456 428.122C481.038 423.352 490.967 422.562 500.614 422.827C508.37 423.041 516.234 424.861 523.078 428.582Z" fill="#0070F3"/>
</g>
<g opacity="0.8" filter="url(#filter2_f_1618_1343)">
<path opacity="0.8" d="M590.126 419.296C593.9 424.22 599.121 423.025 602.704 428.811C603.591 430.448 606.188 432.553 609.476 427.874C614.674 427.728 622.418 409.322 627.863 412.476C631.872 414.797 636.582 417.994 639.482 426.682C641.713 433.38 642.535 441.431 642.946 448.691C643.543 459.208 643.304 469.591 642.133 478.839C638.321 508.989 626.724 527.943 614.875 540.445C600.438 555.678 583.404 559.133 565.661 554.708C558.344 552.883 551.012 549.578 543.646 543.312C536.865 537.542 530.123 530.211 523.629 521.777C515.36 511.04 507.321 497.713 500.893 480.918C496.002 468.144 493.652 453.541 492.912 438.738C491.901 418.499 495.708 402.419 502.629 393.808C506.898 388.496 513.509 386.625 518.649 397.018C522.569 404.946 524.636 416.306 527.097 426.083C528.742 432.617 531.122 441.818 534.605 442.477C540.496 443.591 546.185 439.726 551.205 435.944C557.617 431.113 562.582 421.857 568.333 414.843C571.644 410.803 575.849 410.806 580.016 411.83C583.367 412.654 586.89 415.075 590.126 419.296Z" fill="#0070F3"/>
</g>
<g opacity="0.3" filter="url(#filter3_f_1618_1343)">
<path opacity="0.3" d="M857.495 400.331C860.796 411.714 873.623 417.195 875.61 429.429C875.892 432.721 879.489 438.907 891.619 437.323C903.309 444.118 939.501 430.914 948.339 442.272C954.846 450.633 962.007 461.061 959.48 476.095C957.531 487.687 951.043 499.113 944.47 508.979C934.944 523.269 923.703 536.266 911.564 546.556C871.984 580.1 826.671 588.833 787.459 588.952C739.682 589.097 698.291 570.648 663.45 541.14C649.085 528.97 636.21 514.884 626.318 496.953C617.211 480.444 609.804 461.986 604.081 442.445C596.797 417.569 592.694 389.679 595.746 359.503C598.066 336.552 607.911 314.666 621.542 294.686C640.18 267.371 665.223 251.861 689.482 250.113C704.439 249.035 721.055 255.517 721.743 275.748C722.269 291.182 715.141 308.528 710.516 324.374C707.43 334.963 703.221 349.961 710.278 355.484C722.211 364.827 738.831 367.51 753.88 369.402C773.108 371.82 793.684 366.618 813.692 365.345C825.214 364.613 834.549 370.264 842.747 377.175C849.34 382.732 854.666 390.571 857.495 400.331Z" fill="#F21361"/>
</g>
<defs>
<filter id="filter0_f_1618_1343" x="0" y="116.238" width="939.148" height="900.777" filterUnits="userSpaceOnUse" color-interpolation-filters="sRGB">
<feFlood flood-opacity="0" result="BackgroundImageFix"/>
<feBlend mode="normal" in="SourceGraphic" in2="BackgroundImageFix" result="shape"/>
<feGaussianBlur stdDeviation="125" result="effect1_foregroundBlur_1618_1343"/>
</filter>
<filter id="filter1_f_1618_1343" x="39.6543" y="163.032" width="852.722" height="659.243" filterUnits="userSpaceOnUse" color-interpolation-filters="sRGB">
<feFlood flood-opacity="0" result="BackgroundImageFix"/>
<feBlend mode="normal" in="SourceGraphic" in2="BackgroundImageFix" result="shape"/>
<feGaussianBlur stdDeviation="125" result="effect1_foregroundBlur_1618_1343"/>
</filter>
<filter id="filter2_f_1618_1343" x="242.75" y="139.513" width="650.511" height="666.98" filterUnits="userSpaceOnUse" color-interpolation-filters="sRGB">
<feFlood flood-opacity="0" result="BackgroundImageFix"/>
<feBlend mode="normal" in="SourceGraphic" in2="BackgroundImageFix" result="shape"/>
<feGaussianBlur stdDeviation="125" result="effect1_foregroundBlur_1618_1343"/>
</filter>
<filter id="filter3_f_1618_1343" x="344.727" y="0" width="865.273" height="838.953" filterUnits="userSpaceOnUse" color-interpolation-filters="sRGB">
<feFlood flood-opacity="0" result="BackgroundImageFix"/>
<feBlend mode="normal" in="SourceGraphic" in2="BackgroundImageFix" result="shape"/>
<feGaussianBlur stdDeviation="125" result="effect1_foregroundBlur_1618_1343"/>
</filter>
</defs>
</svg>
